<svg width="302" height="79" viewBox="0 0 302 79" fill="none" xmlns="http://www.w3.org/2000/svg">
<path d="M29.656 77.96C23.32 77.96 17.976 76.488 13.624 73.544C9.272 70.6 5.976 66.504 3.736 61.256C1.56 55.944 0.472 49.736 0.472 42.632C0.472 35.72 1.624 29.64 3.928 24.392C6.296 19.08 9.752 14.952 14.296 12.008C18.904 9 24.568 7.496 31.288 7.496C35.64 7.496 39.256 7.976 42.136 8.936C45.016 9.832 47.16 11.112 48.568 12.776C49.976 14.376 50.68 16.2 50.68 18.248C50.68 20.296 49.88 21.928 48.28 23.144C46.68 24.36 44.696 24.968 42.328 24.968C42.328 22.984 41.976 21.064 41.272 19.208C40.568 17.288 39.384 15.72 37.72 14.504C36.12 13.224 33.912 12.584 31.096 12.584C26.296 12.584 22.424 13.768 19.48 16.136C16.536 18.44 14.392 21.832 13.048 26.312C11.768 30.792 11.128 36.232 11.128 42.632C11.128 48.328 11.8 53.384 13.144 57.8C14.552 62.152 16.728 65.544 19.672 67.976C22.616 70.408 26.424 71.624 31.096 71.624C34.232 71.624 36.888 71.24 39.064 70.472C41.24 69.704 43.064 68.712 44.536 67.496C46.072 66.216 47.384 64.872 48.472 63.464C48.984 63.784 49.4 64.264 49.72 64.904C50.104 65.48 50.296 66.248 50.296 67.208C50.296 68.424 49.88 69.672 49.048 70.952C48.216 72.168 46.968 73.32 45.304 74.408C43.64 75.432 41.496 76.296 38.872 77C36.312 77.64 33.24 77.96 29.656 77.96ZM57.6168 77V72.968H58.8648C60.3368 72.968 61.6488 72.808 62.8008 72.488C64.0168 72.168 64.9768 71.528 65.6808 70.568C66.3848 69.544 66.7368 68.04 66.7368 66.056V19.4C66.7368 17.352 66.3848 15.848 65.6808 14.888C64.9768 13.928 64.0168 13.288 62.8008 12.968C61.6488 12.648 60.3368 12.488 58.8648 12.488H57.6168V8.456H85.5528V12.488H84.3048C82.8968 12.488 81.5848 12.648 80.3688 12.968C79.2168 13.224 78.2568 13.832 77.4888 14.792C76.7848 15.688 76.4328 17.096 76.4328 19.016V72.2H95.3448C97.2648 72.2 98.8008 71.784 99.9528 70.952C101.169 70.056 102.065 68.936 102.641 67.592C103.217 66.248 103.601 64.904 103.793 63.56L104.753 56.36H109.745L109.073 77H57.6168Z" fill="black"/>
<path d="M182.325 54.344C183.413 54.344 183.957 55.816 183.957 58.76C183.957 60.36 183.285 62.312 181.941 64.616C180.597 66.856 178.837 68.936 176.661 70.856C174.549 72.712 172.181 74.248 169.557 75.464C166.933 76.68 164.437 77.288 162.069 77.288C159.701 77.288 157.845 76.84 156.501 75.944C155.157 75.048 154.101 73.832 153.333 72.296C152.245 70.12 151.349 65.992 150.645 59.912C149.941 53.768 149.237 49.48 148.533 47.048C146.869 46.728 145.397 46.088 144.117 45.128C142.901 44.104 142.293 42.888 142.293 41.48C142.293 40.008 142.933 38.952 144.213 38.312C145.557 37.672 147.061 37.352 148.725 37.352C150.453 37.352 151.989 37.768 153.333 38.6C155.125 37.128 156.565 35.4 157.653 33.416C158.805 31.368 159.381 28.648 159.381 25.256C159.381 21.8 158.229 19.048 155.925 17C153.621 14.952 150.229 13.928 145.749 13.928C141.333 13.928 137.941 14.28 135.573 14.984C133.205 15.688 131.157 16.456 129.429 17.288C127.765 18.12 126.261 18.888 124.917 19.592C123.637 20.296 122.421 20.648 121.269 20.648C120.117 20.648 119.541 20.296 119.541 19.592C119.541 18.824 120.149 17.608 121.365 15.944C122.581 14.28 124.373 12.616 126.741 10.952C132.693 6.792 139.413 4.744 146.901 4.808C154.389 4.808 160.565 6.216 165.429 9.032C171.125 12.36 173.973 17.352 173.973 24.008C174.037 29.512 172.597 34.088 169.653 37.736C166.709 41.384 163.061 44.008 158.709 45.608C159.669 47.72 160.437 49.992 161.013 52.424C161.653 54.856 162.261 57.096 162.837 59.144C163.413 61.192 164.053 62.888 164.757 64.232C165.525 65.576 166.421 66.248 167.445 66.248C168.533 66.248 169.813 65.64 171.285 64.424C172.821 63.144 174.325 61.768 175.797 60.296C177.269 58.824 178.581 57.48 179.733 56.264C180.949 54.984 181.813 54.344 182.325 54.344ZM140.565 19.784C141.397 19.784 141.813 20.872 141.813 23.048C141.813 25.224 141.685 27.272 141.429 29.192C140.853 32.904 140.117 36.36 139.221 39.56C136.917 48.264 135.765 53.352 135.765 54.824V68.936C135.765 72.392 134.453 74.76 131.829 76.04C130.613 76.616 129.429 77.16 128.277 77.672C127.189 78.184 125.941 78.44 124.533 78.44C121.845 78.44 120.501 75.368 120.501 69.224C120.501 63.016 121.941 55.208 124.821 45.8C127.701 36.392 130.709 29.224 133.845 24.296C134.485 23.336 135.413 22.344 136.629 21.32C137.845 20.296 139.157 19.784 140.565 19.784ZM190.713 77.288C184.313 77.288 181.113 71.304 181.113 59.336C181.113 52.808 181.913 46.888 183.513 41.576C186.009 33.384 188.825 29.288 191.961 29.288C193.817 29.288 195.289 30.536 196.377 33.032C197.273 34.952 197.689 36.84 197.625 38.696C197.625 41.256 196.857 45.768 195.321 52.232C193.849 57.864 193.113 61.352 193.113 62.696C193.113 64.04 193.433 64.968 194.073 65.48C194.777 65.992 195.577 66.248 196.473 66.248C197.433 66.248 198.617 65.64 200.025 64.424C201.433 63.208 202.841 61.896 204.249 60.488C205.657 59.016 206.937 57.672 208.089 56.456C209.305 55.24 210.137 54.632 210.585 54.632C211.481 54.632 211.929 55.72 211.929 57.896C211.929 62.376 209.657 66.76 205.113 71.048C200.633 75.272 195.833 77.352 190.713 77.288ZM194.649 21.512C192.921 18.952 192.057 16.2 192.057 13.256C192.057 10.312 192.505 7.88 193.401 5.96C194.361 3.976 195.257 2.536 196.089 1.64C196.921 0.679998 197.881 0.199999 198.969 0.199999C200.761 0.199999 202.392 1.544 203.865 4.232C205.337 6.856 206.073 9.064 206.073 10.856C206.073 14.184 204.889 16.808 202.521 18.728C200.217 20.584 197.593 21.512 194.649 21.512ZM235.354 35.24C242.906 35.24 246.682 36.616 246.682 39.368C246.682 40.904 246.138 43.432 245.05 46.952C239.29 56.488 233.466 63.24 227.578 67.208C230.394 67.912 233.082 68.264 235.642 68.264C238.202 68.264 240.57 67.56 242.746 66.152C244.986 64.744 246.938 63.176 248.602 61.448C250.266 59.72 251.642 58.152 252.73 56.744C253.882 55.336 254.81 54.632 255.514 54.632C256.41 54.632 256.858 55.848 256.858 58.28C256.858 60.712 256.154 63.144 254.746 65.576C253.338 67.944 251.386 70.056 248.89 71.912C243.386 76.008 236.762 78.056 229.018 78.056C225.882 78.056 223.162 77.672 220.858 76.904C218.554 76.072 216.89 75.304 215.866 74.6C214.906 73.896 214.426 72.936 214.426 71.72C214.426 70.44 214.65 68.776 215.098 66.728C216.058 65.384 217.594 63.912 219.706 62.312C221.882 60.712 224.026 59.048 226.138 57.32C228.314 55.592 230.202 53.864 231.802 52.136C233.466 50.408 234.298 48.712 234.298 47.048C234.298 46.408 232.794 46.088 229.786 46.088L213.946 46.952C212.282 46.952 211.034 46.472 210.202 45.512C209.434 44.488 209.05 43.336 209.05 42.056C209.05 39.112 210.138 36.52 212.314 34.28C214.554 32.04 217.466 30.888 221.05 30.824C222.586 30.824 224.41 31.336 226.522 32.36C228.634 33.384 230.298 34.12 231.514 34.568C232.794 35.016 234.074 35.24 235.354 35.24ZM280.26 35.24C287.812 35.24 291.588 36.616 291.588 39.368C291.588 40.904 291.044 43.432 289.956 46.952C284.196 56.488 278.372 63.24 272.484 67.208C275.3 67.912 277.988 68.264 280.548 68.264C283.108 68.264 285.476 67.56 287.652 66.152C289.892 64.744 291.844 63.176 293.508 61.448C295.172 59.72 296.548 58.152 297.636 56.744C298.788 55.336 299.716 54.632 300.42 54.632C301.316 54.632 301.764 55.848 301.764 58.28C301.764 60.712 301.06 63.144 299.652 65.576C298.244 67.944 296.292 70.056 293.796 71.912C288.292 76.008 281.668 78.056 273.924 78.056C270.788 78.056 268.068 77.672 265.764 76.904C263.46 76.072 261.796 75.304 260.772 74.6C259.812 73.896 259.332 72.936 259.332 71.72C259.332 70.44 259.556 68.776 260.004 66.728C260.964 65.384 262.5 63.912 264.612 62.312C266.788 60.712 268.932 59.048 271.044 57.32C273.22 55.592 275.108 53.864 276.708 52.136C278.372 50.408 279.204 48.712 279.204 47.048C279.204 46.408 277.7 46.088 274.692 46.088L258.852 46.952C257.188 46.952 255.94 46.472 255.108 45.512C254.34 44.488 253.956 43.336 253.956 42.056C253.956 39.112 255.044 36.52 257.22 34.28C259.46 32.04 262.372 30.888 265.956 30.824C267.492 30.824 269.316 31.336 271.428 32.36C273.54 33.384 275.204 34.12 276.42 34.568C277.7 35.016 278.98 35.24 280.26 35.24Z" fill="#FB4B0B"/>
</svg>
