<svg width="512" height="512" viewBox="0 0 512 512" fill="none" xmlns="http://www.w3.org/2000/svg">
<g clip-path="url(#clip0_236_3)">
<path d="M454.88 389.647L454.87 389.877L466.89 512H379.175L367.805 436.996L362.801 510.077L272.724 509.115L282.292 413.167L290.429 368.694V368.684L291.65 361.991H452.488L452.698 364.414L454.88 389.647Z" fill="#2F2E41"/>
<path d="M223.073 460.441C232.363 462.067 242.05 452.016 244.709 437.99C245.874 431.851 245.498 425.968 243.929 421.156L245.353 413.071L269.257 304.306C269.257 304.306 313.275 219.709 313.273 205.023C313.272 190.337 300.54 183.134 300.54 183.134L283.311 183.289L229.282 310.072L219.552 403.76L217.978 416.614C214.743 420.584 212.232 425.962 211.069 432.102C208.409 446.127 213.784 458.815 223.073 460.441Z" fill="#FFB6B6"/>
<path d="M398.331 130.727L382.317 95.1484L330.273 103.803L326.77 145.662L398.331 130.727Z" fill="#FFB6B6"/>
<path opacity="0.1" d="M398.331 130.727L382.317 95.1484L330.273 103.803L326.77 145.662L398.331 130.727Z" fill="black"/>
<path d="M511.428 204.77C511.428 204.77 474.396 138.42 467.39 131.689C464.272 128.693 459.369 128.651 454.887 129.524L403.336 112.457L385.863 103.025L384.711 120.97L327.347 130.862C327.666 119.919 329.273 115.756 329.273 115.756L308.255 139.382L267.22 158.614L267.242 158.787C264.231 159.797 261.376 161.525 259.213 164.383C251.206 174.961 229.187 303.815 229.187 303.815L276.227 313.431L282.629 274.833L287.237 309.584L290.74 374.492C290.74 374.492 354.794 427.38 385.821 408.148C416.847 388.916 454.88 389.877 454.88 389.877L455.829 359.791C456.504 358.754 456.882 358.145 456.882 358.145L455.881 251.423V223.025C463.505 233.231 472.707 242.008 483.404 246.119C518.434 259.581 511.428 204.77 511.428 204.77Z" fill="#E6E6E6"/>
<path d="M350.855 110.063C377.298 110.063 398.735 89.4671 398.735 64.0613C398.735 38.6555 377.298 18.0601 350.855 18.0601C324.412 18.0601 302.976 38.6555 302.976 64.0613C302.976 89.4671 324.412 110.063 350.855 110.063Z" fill="#FFB6B6"/>
<path d="M385.204 77.0618C385.204 77.0618 389.367 63.0614 398.735 64.0614C408.103 65.0615 410.184 57.0612 408.103 53.0611C406.021 49.061 401.857 29.0604 401.857 29.0604C401.857 29.0604 403.939 15.0601 391.449 13.06C378.959 11.06 374.795 9.0599 372.713 5.05978C370.632 1.05967 339.406 -2.94044 328.997 3.05973C318.589 9.0599 310.262 20.572 302.976 23.8162C295.69 27.0604 289.445 33.0606 293.608 43.0608C297.772 53.0611 303.81 72.6195 303.81 72.6195C303.81 72.6195 314.426 69.0616 316.507 75.0617C318.589 81.0619 310.262 73.0617 320.671 57.0612C331.079 41.0608 331.079 25.0603 347.733 31.0605C364.387 37.0607 383.122 35.0606 381.04 47.0609C378.959 59.0613 385.204 77.0618 385.204 77.0618Z" fill="#2F2E41"/>
<path d="M382.276 441.742H18.6492C8.36581 441.742 0 433.703 0 423.824V238.243C0 228.364 8.36581 220.325 18.6492 220.325H382.276C392.559 220.325 400.925 228.364 400.925 238.243V423.824C400.925 433.703 392.559 441.742 382.276 441.742Z" fill="white"/>
<path d="M382.276 441.742H18.6492C8.36581 441.742 0 433.703 0 423.824V238.243C0 228.364 8.36581 220.325 18.6492 220.325H382.276C392.559 220.325 400.925 228.364 400.925 238.243V423.824C400.925 433.703 392.559 441.742 382.276 441.742ZM18.6492 223.318C10.0834 223.318 3.11427 230.013 3.11427 238.243V423.824C3.11427 432.054 10.0834 438.75 18.6492 438.75H382.276C390.842 438.75 397.811 432.054 397.811 423.824V238.243C397.811 230.013 390.842 223.318 382.276 223.318H18.6492Z" fill="#3F3D56"/>
<path d="M354.211 242.766C356.791 242.766 358.882 240.757 358.882 238.278C358.882 235.799 356.791 233.79 354.211 233.79C351.631 233.79 349.54 235.799 349.54 238.278C349.54 240.757 351.631 242.766 354.211 242.766Z" fill="#3F3D56"/>
<path d="M366.668 242.766C369.248 242.766 371.339 240.757 371.339 238.278C371.339 235.799 369.248 233.79 366.668 233.79C364.088 233.79 361.997 235.799 361.997 238.278C361.997 240.757 364.088 242.766 366.668 242.766Z" fill="#3F3D56"/>
<path d="M379.126 242.766C381.705 242.766 383.797 240.757 383.797 238.278C383.797 235.799 381.705 233.79 379.126 233.79C376.546 233.79 374.454 235.799 374.454 238.278C374.454 240.757 376.546 242.766 379.126 242.766Z" fill="#3F3D56"/>
<path d="M26.4714 310.837C25.1835 310.837 24.1357 311.844 24.1357 313.081C24.1357 313.684 24.3783 314.242 24.8185 314.654C25.2625 315.091 25.8442 315.325 26.4714 315.325H376.011C377.299 315.325 378.347 314.318 378.347 313.081C378.347 312.478 378.104 311.92 377.664 311.508C377.22 311.071 376.638 310.837 376.011 310.837H26.4714Z" fill="#E6E6E6"/>
<path d="M332.411 310.089V316.073H179.441H26.4712C25.6148 316.073 24.8362 315.744 24.2757 315.19C23.6995 314.652 23.3569 313.904 23.3569 313.081C23.3569 311.435 24.7584 310.089 26.4712 310.089H179.441H332.411Z" fill="#FB4B0B"/>
<path d="M372.118 298.868H340.976C337.541 298.868 334.747 296.185 334.747 292.884C334.747 289.584 337.541 286.9 340.976 286.9H372.118C375.553 286.9 378.347 289.584 378.347 292.884C378.347 296.185 375.553 298.868 372.118 298.868Z" fill="#E6E6E6"/>
<path d="M168.133 267.451H28.8072C25.3728 267.451 22.5786 264.767 22.5786 261.467C22.5786 258.167 25.3728 255.483 28.8072 255.483H168.133C171.568 255.483 174.362 258.167 174.362 261.467C174.362 264.767 171.568 267.451 168.133 267.451Z" fill="#E6E6E6"/>
<path d="M26.4714 378.159C25.1835 378.159 24.1357 379.166 24.1357 380.404C24.1357 381.007 24.3783 381.565 24.8185 381.977C25.2625 382.414 25.8442 382.648 26.4714 382.648H376.011C377.299 382.648 378.347 381.641 378.347 380.404C378.347 379.8 378.104 379.242 377.664 378.83C377.22 378.393 376.638 378.159 376.011 378.159H26.4714Z" fill="#E6E6E6"/>
<path d="M212.511 377.411V383.396H26.4712C25.6148 383.396 24.8362 383.066 24.2757 382.513C23.6995 381.974 23.3569 381.226 23.3569 380.404C23.3569 378.758 24.7584 377.411 26.4712 377.411H212.511Z" fill="#FB4B0B"/>
<path d="M372.118 366.191H340.976C337.541 366.191 334.747 363.507 334.747 360.207C334.747 356.907 337.541 354.223 340.976 354.223H372.118C375.553 354.223 378.347 356.907 378.347 360.207C378.347 363.507 375.553 366.191 372.118 366.191Z" fill="#E6E6E6"/>
<path d="M426.638 113.603C453.572 113.603 475.406 93.0677 475.406 67.7355C475.406 42.4034 453.572 21.8677 426.638 21.8677C399.704 21.8677 377.87 42.4034 377.87 67.7355C377.87 93.0677 399.704 113.603 426.638 113.603Z" fill="#FB4B0B"/>
<path d="M443.19 44.5995C436.698 55.958 430.205 67.3166 423.713 78.6751C419.575 71.6507 415.459 64.6139 411.311 57.5949C409.879 55.1709 405.982 57.3512 407.418 59.7813C412.227 67.9178 416.985 76.0814 421.794 84.2179C422.616 85.6091 424.873 85.6414 425.687 84.2179C432.819 71.7406 439.951 59.2632 447.083 46.7858C448.481 44.3409 444.589 42.1527 443.19 44.5995Z" fill="white"/>
<path d="M493.96 188.638L445.371 166.306C445.371 166.306 443.42 151.36 434.308 146.028C432.759 142.478 430.976 138.577 429.358 135.486C425.354 127.843 431.359 113.419 426.355 113.419C421.351 113.419 413.953 128.588 414.345 132.651C414.645 135.769 417.328 141.213 417.882 145.979C411.78 148.19 406.857 151.98 403.62 154.998C400.819 157.609 399.779 161.506 400.873 165.105C404.045 175.536 411.974 197.078 423.353 197.078C438.365 197.078 442.369 194.193 442.369 194.193C442.369 194.193 473.395 231.695 496.415 234.58C519.435 237.465 493.96 188.638 493.96 188.638Z" fill="#FFB6B6"/>
</g>
<defs>
<clipPath id="clip0_236_3">
<rect width="512" height="512" fill="white"/>
</clipPath>
</defs>
</svg>
